<?xml version="1.0" encoding="UTF-8"?> <svg xmlns="http://www.w3.org/2000/svg" width="97" height="30" viewBox="0 0 97 30" fill="none"><g clip-path="url(#clip0_22_2126)"><path d="M15.1006 8.2837e-05C18.063 0.0199519 20.9531 0.916546 23.4066 2.5768C25.86 4.23705 27.767 6.58662 28.8869 9.3292C30.0068 12.0718 30.2895 15.0846 29.6994 17.9876C29.1093 20.8907 27.6728 23.554 25.5711 25.6417C23.4694 27.7295 20.7965 29.1481 17.8895 29.7188C14.9826 30.2895 11.9718 29.9866 9.23675 28.8484C6.50172 27.7102 4.16495 25.7876 2.52114 23.3231C0.877321 20.8586 6.66321e-05 17.9625 0 15.0001C0.0134482 11.0085 1.61193 7.18579 4.44382 4.37276C7.27571 1.55974 11.109 -0.013151 15.1006 8.2837e-05Z" fill="#2656D7"></path><path d="M16.89 23.7097L15.17 24.7031L11.4749 22.5728L13.153 21.6038L13.195 21.5794L13.2594 21.6165L16.89 23.7097Z" fill="white"></path><path d="M23.4929 10.2891V12.2885L19.8554 10.1885L18.8689 9.61906L17.8824 10.1885L13.2594 12.859L12.2729 13.4284V14.6073L10.4942 13.5808L9.50772 13.0113L8.5212 13.5808L6.84802 14.5458V10.2891L15.17 5.48447L23.4929 10.2891Z" fill="white"></path><path d="M23.4929 14.5634V19.9062L18.8699 22.5728H18.864L14.246 19.9062V14.5634L18.8699 11.8929L23.4929 14.5634Z" fill="white"></path><path d="M12.1664 16.8216V19.8916L9.50674 21.428L6.84802 19.8926V16.8226L9.50772 15.2872L12.1664 16.8216Z" fill="white"></path><path d="M41.8568 9.10822V14.2577H51.2688V17.8717H41.8568V24.9707H37.1508V5.48447H52.5171V9.10822H41.8568Z" fill="white"></path><path d="M54.579 5.48447H59.1092V24.9687H54.579V5.48447Z" fill="white"></path><path d="M78.3854 9.33873V24.9668H74.0877V23.108C73.4778 23.7857 72.7285 24.3235 71.8913 24.6844C71.054 25.0454 70.1486 25.221 69.2372 25.1992C65.3155 25.1992 62.5552 22.9918 62.5552 18.1666V9.33873H67.0873V17.5044C67.0873 20.1192 68.2487 21.2815 70.253 21.2815C72.3442 21.2815 73.8543 19.9453 73.8543 17.0678V9.33873H78.3854Z" fill="white"></path><path d="M91.4602 24.9687L88.0328 20.1739L84.494 24.9687H79.5497L85.5616 17.0942L79.7548 9.33873H84.834L88.1549 13.9002L91.554 9.33873H96.3763L90.5655 16.9779L96.6018 24.9687H91.4602Z" fill="white"></path></g><defs><clipPath id="clip0_22_2126"><rect width="96.6009" height="30" fill="white"></rect></clipPath></defs></svg> 