<svg xmlns="http://www.w3.org/2000/svg" viewBox="0 0 30 30" fill="none">
  <!-- Flux Icon Only - White -->
  <circle cx="15" cy="15" r="15" fill="#2656D7"/>

  <!-- White geometric pattern -->
  <path d="M16.89 23.7097L15.17 24.7031L11.4749 22.5728L13.153 21.6038L13.195 21.5794L13.2594 21.6165L16.89 23.7097Z" fill="white"/>
  <path d="M23.4929 10.2891V12.2885L19.8554 10.1885L18.8689 9.61906L17.8824 10.1885L13.2594 12.859L12.2729 13.4284V14.6073L10.4942 13.5808L9.50772 13.0113L8.5212 13.5808L6.84802 14.5458V10.2891L15.17 5.48447L23.4929 10.2891Z" fill="white"/>
  <path d="M23.4929 14.5634V19.9062L18.8699 22.5728H18.864L14.246 19.9062V14.5634L18.8699 11.8929L23.4929 14.5634Z" fill="white"/>
  <path d="M12.1664 16.8216V19.8916L9.50674 21.428L6.84802 19.8926V16.8226L9.50772 15.2872L12.1664 16.8216Z" fill="white"/>
</svg>
